<svg height='100px' width='100px'  fill="#000000" xmlns="http://www.w3.org/2000/svg" xmlns:xlink="http://www.w3.org/1999/xlink" version="1.1" x="0px" y="0px" viewBox="0 0 50 50" enable-background="new 0 0 50 50" xml:space="preserve"><g><path d="M43.5646172,6.4698405c-0.0079002,0-0.0166016,0-0.0245018,0c0.0032997-4.8531003-5.879776-7.2846003-9.2782974-3.8828003   c-0.9736023,0.9726002-1.5371017,2.2626002-1.5879021,3.6317999c-0.0937004,2.4795003-1.2889996,4.9892001-3.3661995,7.0654006   L13.279417,29.3135395c-4.8181992,4.8136997-7.8591995,2.1142006-10.6981993,4.9531002   c-3.398,3.399601-0.9593,9.2812996,3.8671236,9.2812996c0.0039997,0,0.0087762,0,0.0136762,0   c-0.0268002,4.593502,5.2970996,7.0284004,8.7558994,4.3174019c3.9073-3.0659027,0.2980995-5.9848022,3.9266996-9.6133003   l19.1015987-19.1016006c3.6462021-3.6435003,6.5377998-0.0051994,9.6142998-3.9277   C50.5925179,11.7375402,48.1222153,6.4698405,43.5646172,6.4698405z M46.2862167,13.9883404   c-2.2563019,2.8803997-5.1391983-0.5669003-9.4541016,3.7481003L17.7306175,36.8379402   c-1.7852001,1.7851982-2.6690006,4.1035004-2.4258003,6.3604012c0.2109003,1.9734001-1.3085995,3.7977982-3.4120998,3.7977982   c-2.316,0-3.8978-2.2080002-3.3046999-4.3358994c0.2075005-0.7495003-0.4841995-1.4351006-1.2235999-1.2333984   c-3.4196999,0.9188004-5.8283-3.285202-3.3692-5.7461014c2.0574-2.0573997,5.4913006,0.2517014,10.6983004-4.9531002   L30.721817,14.6983404c2.435524-2.4336004,3.8378983-5.4189997,3.9501991-8.4053001   c0.0321999-0.8632998,0.3887024-1.6767998,1.0039024-2.2919998c2.3668976-2.3652,6.6876984-0.1367002,5.7450981,3.3691998   C41.221817,8.1143398,41.9040184,8.79844,42.6544151,8.5938406c1.3252029-0.3701,2.7998009,0.1268997,3.6571999,1.2480001   C47.2345161,11.0489407,47.2237167,12.7920399,46.2862167,13.9883404z"></path></g></svg>