<svg height='100px' width='100px'  fill="#000000" xmlns="http://www.w3.org/2000/svg" data-name="Layer 1" viewBox="0 5 64 69" x="0px" y="0px"><title>Paw_Print_01_Outline</title><path d="M18.26,32.82c2.57-.45,4.25-3.2,3.73-6.13h0c-.46-2.63-2.89-6-5.78-5.48s-4,4.49-3.56,7.12a5.23,5.23,0,0,0,4.87,4.55A4.21,4.21,0,0,0,18.26,32.82Zm-2.65-5c-.29-1.62.52-3.54,1.12-3.65h.06c.63,0,2,1.48,2.24,3,.22,1.27-.37,2.49-1.3,2.65S15.84,29.09,15.62,27.82Z"></path><path d="M27,27.72c2.61,0,4.74-2.42,4.74-5.39,0-2.17-1.46-7.89-4.74-7.89s-4.74,5.72-4.74,7.89C22.23,25.3,24.35,27.72,27,27.72Zm0-10.23c.65.49,1.74,3.06,1.74,4.84,0,1.29-.8,2.39-1.74,2.39s-1.74-1.09-1.74-2.39C25.23,20.54,26.32,18,27,17.48Z"></path><path d="M32,28.79c-4.42,0-8.57,2.32-11.7,6.52a20.28,20.28,0,0,0-4.13,11.13,4.53,4.53,0,0,0,1.75,4c2.42,1.67,6.23.2,9.92-1.21A17.9,17.9,0,0,1,32,47.94a17.71,17.71,0,0,1,4.16,1.31c2.52,1,5.09,2,7.25,2a4.2,4.2,0,0,0,4.43-4.79,20.28,20.28,0,0,0-4.13-11.13C40.59,31.11,36.44,28.79,32,28.79ZM44.39,48c-1.12.77-4.88-.69-7.12-1.57A17,17,0,0,0,32,44.94a17.22,17.22,0,0,0-5.24,1.49c-2.25.86-6,2.31-7.14,1.54-.37-.26-.45-1-.45-1.53,0-5,5-14.65,12.83-14.65s12.83,9.62,12.83,14.65C44.85,47,44.77,47.76,44.39,48Z"></path><path d="M47.78,21.22c-2.89-.51-5.32,2.85-5.78,5.48-.51,2.93,1.16,5.67,3.73,6.13a4.21,4.21,0,0,0,.73.06,5.23,5.23,0,0,0,4.87-4.55C51.8,25.71,50.67,21.73,47.78,21.22Zm.6,6.6c-.22,1.28-1.21,2.21-2.13,2s-1.52-1.38-1.3-2.65c.28-1.57,1.61-3,2.24-3h.06C47.86,24.28,48.67,26.19,48.38,27.82Z"></path><path d="M37,27.72c2.61,0,4.74-2.42,4.74-5.39,0-2.17-1.46-7.89-4.74-7.89s-4.74,5.72-4.74,7.89C32.29,25.3,34.42,27.72,37,27.72Zm0-10.23c.65.49,1.74,3.06,1.74,4.84,0,1.29-.8,2.39-1.74,2.39s-1.74-1.09-1.74-2.39C35.29,20.54,36.39,18,37,17.48Z"></path></svg>
